<?xml version="1.0" encoding="utf-8"?>
<!-- Generator: Adobe Illustrator 26.0.0, SVG Export Plug-In . SVG Version: 6.00 Build 0)  -->
<svg version="1.1" xmlns="http://www.w3.org/2000/svg" xmlns:xlink="http://www.w3.org/1999/xlink" x="0px" y="0px"
	 viewBox="0 0 668 656" style="enable-background:new 0 0 668 656;" xml:space="preserve">
<style type="text/css">
	.st0{clip-path:url(#SVGID_00000075860544401473528450000015900815229267461267_);}
	.st1{fill:#D95F27;}
	.st2{fill:#1A1B1F;}
	.st3{fill:#E0D9C6;}
	.st4{fill:#FFFFFF;}
	.st5{fill:#272525;}
	.st6{fill:#EAC52D;}
	.st7{fill:#070707;}
	.st8{clip-path:url(#SVGID_00000075860544401473528450000015900815229267461267_);fill:none;}
</style>
<g id="Bg">
</g>
<g id="Object">
	<g>
		<defs>
			<circle id="SVGID_1_" cx="334" cy="322" r="334"/>
		</defs>
		<clipPath id="SVGID_00000086651595793166132450000002680886991063924631_">
			<use xlink:href="#SVGID_1_"  style="overflow:visible;"/>
		</clipPath>
		<g style="clip-path:url(#SVGID_00000086651595793166132450000002680886991063924631_);">
			<g>
				<g>
					<path class="st1" d="M477.07,680.23c-64.72,10.39-132.1,7.42-193.1-18.13c-49.93-20.91-92.56-55.77-126.28-97.81
						c-31.92-39.8-56.09-85.44-74.64-132.83c-15.04-38.42-26.52-78.25-34.88-118.65c-3.99-19.3-8.78-39.7-9.6-59.49
						c-0.01-0.29-0.06-0.58-0.08-0.86c-0.15-1.65,1.55-7.93,4.01-7.4c61.21,13.32,119.86,36.91,172.86,70.37
						c46.04,29.07,87.45,65.14,123.54,105.85c30.93,34.88,58,73.14,81.24,113.54c17.17,29.84,32.32,60.88,45.1,92.85
						c3.95,9.88,7.67,19.85,11.08,29.94c1.52,4.51,3.54,9.26,4.42,13.96c0.04,0.21,0.12,0.43,0.18,0.64
						c0.48,1.73-0.25,3.78-1.11,5.32c-0.63,1.38-1.46,2.51-2.31,2.65c-0.02,0-0.04,0.01-0.06,0.01
						C477.3,680.23,477.17,680.25,477.07,680.23z"/>
				</g>
			</g>
			<g>
				<g>
					<path class="st2" d="M90.27,455.21c-6.81-12.51-12.44-25.77-17.78-38.96c-13.07-32.28-23.37-65.74-30.82-99.75
						c-5.55-25.34-9.4-51.01-11.46-76.86c-0.01-0.09-0.01-0.19-0.01-0.29c-0.36-2.72,1.71-6.6,4.13-6.12
						c0.14,0.03,0.27,0.06,0.41,0.09c0.34-0.05,0.66,0,0.92,0.19c47.81,9.64,95.37,27.29,138.33,50.07
						c19.46,10.32,38.11,22.16,55.38,35.85c2.52,2-0.57,8-3.42,7.97c-13.64-0.15-27.27-0.31-40.91-0.46
						c0.7,13.12,1.41,26.23,2.11,39.34c0.11,2.03-1.16,6.84-4.12,6.41c-16.68-2.42-33.36-4.83-50.04-7.25
						c3.95,13.11,7.9,26.21,11.86,39.32c0.82,2.72-0.97,8.09-4.63,7.13c-15.73-4.09-31.46-8.18-47.19-12.27
						c1.07,16.82,2.15,33.63,3.22,50.45C96.39,452.51,92.71,459.67,90.27,455.21z"/>
				</g>
			</g>
		</g>
		<g style="clip-path:url(#SVGID_00000086651595793166132450000002680886991063924631_);">
			<g>
				<path class="st3" d="M373.13,431.13c4.87-32.69,11.21-65.15,18.43-97.4c4.29-19.18,8.91-38.3,13.77-57.34
					c4.23-16.57,6.84-34.75,18.64-47.92c9.52-10.63,22.96-16.69,37.09-17.72c0.21-0.02,0.45-0.02,0.71-0.03
					c13.45-0.61,26.97,3.21,37.99,11c13.26,9.36,18.77,23.68,26.33,37.39c15.51,28.11,33.61,54.84,52.42,80.83
					c8.18,11.3,14.18,23.89,21.57,35.74c8.98,14.41,17.65,29.01,25.29,44.18c23.1,45.89,36.66,96.19,37.35,147.69
					c0.45,34.22-4.72,68.36-14.42,101.15c-2.63,8.89-5.64,17.68-8.62,26.44c-0.69,2.03-1.6,3.78-3.02,5.42
					c-7.28,8.37-20.9,10.28-31.2,11.27c-42.3,4.07-84.78,9.34-127.36,7.1c-19.6-1.03-41.52-2.99-58.9-12.98
					c-9.15-5.26-13.13-12.72-18.18-21.37c-7.74-13.26-15.39-26.37-20.89-40.77c-9.37-24.51-13.55-50.74-15.17-76.83
					C362.12,521.63,366.45,475.96,373.13,431.13z"/>
			</g>
		</g>
		<g style="clip-path:url(#SVGID_00000086651595793166132450000002680886991063924631_);">
			<g>
				<path class="st1" d="M277.93,389.32c20.09-51.89,45.33-101.66,72.94-149.8c19.86-34.61,41.05-68.47,63.6-101.34
					c4.34-6.32,8.77-12.58,13.22-18.82c7.25-10.16,17.02-15.77,29.38-16.95c8.93-0.85,18.09,0.52,26.55,3.49
					c3.32,1.17,6.38,2.8,9.87,3.43c4.31,0.78,8.78,0.75,13.14,0.63c12.84-0.37,25.76-2.25,38.33-4.91c1.87-0.39,9.33,2.96,5.77,4.27
					c-23.64,8.75-45.95,24.78-63.13,43.19c-12.74,13.66-20.68,29.74-21.96,48.65c-1.04,15.29,2.02,30.72,7.06,45.08
					c2.69,7.66,5.89,15.35,10.07,22.32c0.12,0.2,0.2,0.38,0.24,0.55c0.01,0.02,0.03,0.04,0.04,0.06
					c20.15,49.49,40.49,98.91,60.76,148.35c11.14,27.17,22.28,54.34,33.43,81.51c7.02,17.12,13.56,33.36,18.39,51.33
					c13.95,51.96,25.79,128.61-26.98,163.14c-32.98,21.58-77.35,19.22-114.31,12.21c-12.55-2.38-24.88-5.8-37.42-8.21
					c-18.86-3.63-37.79-5.98-56.29-11.37c-25.28-7.36-49.81-18.79-69.84-36.34c-35.22-30.86-48.71-76.49-48.47-122.53
					C242.62,493.02,258.55,439.38,277.93,389.32z"/>
			</g>
		</g>
		<g style="clip-path:url(#SVGID_00000086651595793166132450000002680886991063924631_);">
			<g>
				<path class="st3" d="M464.09,148.6c4.73-5.86,10.49-8.39,16.94-11.83c7.71-4.11,15.34-8.74,21.81-14.65
					c3.39-3.09,5.89-7.07,9.51-9.87c3.72-2.87,7.85-3.97,12.39-4.81c9.32-1.73,18.65-3.57,28.05-4.81
					c3.85-1.37,9.46,0.12,10.43,4.46c0.78,3.5-1.15,8.08-2.72,11.12c-6.9,13.36-21.73,21.95-34.68,28.36
					c-9.61,4.75-20.01,8.34-26.12,17.77c-4.08,6.3-5.13,13.96-4.32,21.31c1.63,14.8,8.94,29.19,14.7,42.73
					c4.29,10.08,9.28,19.84,2.09,29.97c-2.63,3.71-6.49,6.4-10.79,7.8c-0.96,0.31-6.26,0.96-7.82,2.34c0.2,0.97,0.23,1.83-0.02,2.5
					c-1.02,2.78-6.83,0.82-7.92-0.99c-0.78-1.28-0.81-2.39-0.41-3.34c-1.02-3.79-5.11-10.33-6.22-12.51
					c-3.25-6.42-6.64-12.76-9.83-19.21c-6.89-13.93-13.34-28.59-15.49-44.1C451.56,175.76,454.38,160.64,464.09,148.6z"/>
			</g>
		</g>
		<g style="clip-path:url(#SVGID_00000086651595793166132450000002680886991063924631_);">
			<g>
				<path class="st2" d="M441.95,129.98c10.1-15.72,31.38-17.73,47.81-11.8c0.16,0.06,0.21,0.13,0.17,0.22
					c0.07,0.06,0.09,0.12,0.03,0.19c-7.66,9.65-18.29,16.02-30.84,15.86c-5.7-0.07-11.92-1.28-16.97-4.06
					C442.02,130.33,441.84,130.16,441.95,129.98z"/>
			</g>
		</g>
		<g style="clip-path:url(#SVGID_00000086651595793166132450000002680886991063924631_);">
			<g>
				<path class="st2" d="M552.92,84.81c0.04-0.03,0.09-0.06,0.14-0.09c0.15-0.18,0.46-0.36,0.99-0.46c3.52-0.66,7.83,0.07,9.17,3.87
					c1.14,3.24,0.64,7.82,0.53,11.21c-0.08,2.53-0.25,5.6-2.28,7.4c-4.01,3.56-10.52,0.76-12.94-3.27
					C544.69,97.06,547.71,89.36,552.92,84.81z"/>
			</g>
		</g>
		<g style="clip-path:url(#SVGID_00000086651595793166132450000002680886991063924631_);">
			<g>
				<path class="st4" d="M460.35,125.18c0.82,4.8,2.95,8.45,4.76,8.14c1.81-0.31,2.61-4.45,1.79-9.26c-0.82-4.8-2.95-8.45-4.76-8.14
					C460.33,116.24,459.53,120.38,460.35,125.18z"/>
			</g>
		</g>
		<g style="clip-path:url(#SVGID_00000086651595793166132450000002680886991063924631_);">
			<g>
				<path class="st1" d="M447.44,92.68c3.77,4.72,7.54,9.43,11.32,14.15c0.06,0.07,0.07,0.15,0.06,0.22c0.02,0.1-0.05,0.23-0.28,0.4
					c-3.77,2.83-7.55,5.66-11.32,8.49c-0.27,0.2-2.44,0.96-2.44,0.21c0-7.54,0-15.09,0-22.63C444.78,92.74,446.98,92.1,447.44,92.68
					z"/>
			</g>
		</g>
		<g style="clip-path:url(#SVGID_00000086651595793166132450000002680886991063924631_);">
			<g>
				<path class="st1" d="M419.17,72.93c9.43,14.15,18.86,28.29,28.29,42.44c0.02,0.04,0.03,0.07,0.04,0.11
					c0.05,0.05,0.06,0.11,0.02,0.19c-8.13,12.88-16.25,25.77-24.38,38.65c-0.27,0.43-2.71,1.31-2.75,0.42
					c-1.14-23.67-2.29-47.34-3.43-71.02c-0.16-3.36-0.32-6.71-0.49-10.07C416.44,72.88,418.78,72.35,419.17,72.93z"/>
			</g>
		</g>
		<g style="clip-path:url(#SVGID_00000086651595793166132450000002680886991063924631_);">
			<g>
				<path class="st4" d="M427.72,95.88c4.24,5.5,8.49,11,12.73,16.5c0.04,0.05,0.04,0.1,0.04,0.15c0.01,0.05,0,0.1-0.04,0.15
					c-3.3,3.93-6.6,7.86-9.9,11.79c-0.41,0.49-2.69,0.66-2.77-0.22c-0.94-9.43-1.89-18.86-2.83-28.29
					C424.85,95.1,427.38,95.44,427.72,95.88z"/>
			</g>
		</g>
		<g style="clip-path:url(#SVGID_00000086651595793166132450000002680886991063924631_);">
			<path class="st5" d="M470.7,86.82c3.34,5.36,5.66,10.71,4.05,13.58c-1.31,2.34-3.91,3.59-6.34,4.74
				c-18.42,8.77-35.72,19.89-51.34,33.02c-6.48-6.37-12.21-13.49-17.04-21.19c-7.52,6.2-15.85,11.42-24.71,15.5
				c-1.19-3.31-0.3-6.96,0.6-10.37c5.05-19.16,8.88-39.36,15.67-57.9c0.76-2.09,1.64-4.32,3.5-5.54c1-0.65,2.2-0.94,3.37-1.22
				c7.62-1.79,14.97-4.24,22.69-5.59c8.94-1.56,17.9-2.99,26.89-4.23c7.86-1.08,15.64,0.15,23.49-1.67
				c1.45-0.34,3.51-0.39,3.85,1.06c0.16,0.71-0.24,1.42-0.63,2.03c-4.87,7.62-10.24,14.92-16.07,21.84
				C458.63,70.96,465.77,78.9,470.7,86.82z"/>
			<g>
				<path class="st6" d="M397.22,147.99l0.9,0.99c7.99-7.27,12.35-18.98,13.34-35.78c0.17-2.88,0.27-5.83,0.36-8.69
					c0.33-9.87,0.66-20.07,4.07-29.36l-1.26-0.46c-3.49,9.5-3.82,19.81-4.15,29.78c-0.09,2.85-0.19,5.79-0.36,8.65
					C409.16,129.56,404.94,140.96,397.22,147.99z"/>
			</g>
			<path class="st6" d="M400.92,153.18c-2.44,4.28-5.09,8.44-7.94,12.46c-0.21,0.3-0.46,0.62-0.83,0.66
				c-0.3,0.04-0.58-0.13-0.83-0.29c-3.26-2.1-6.42-4.36-9.45-6.78c-0.25-0.2-0.51-0.42-0.55-0.74c-0.04-0.29,0.12-0.56,0.28-0.8
				c0.66-1.05,1.33-2.1,1.99-3.16c2.13-3.38,4.37-6.87,7.75-9C398.26,141.16,405.45,145.22,400.92,153.18z"/>
			<path class="st6" d="M404.1,142.48c1.29,2.2,0.41,5.66-2.8,6.06c-5.3,0.67-6.21-7.71-0.71-7.88
				C402.28,140.61,403.46,141.39,404.1,142.48z"/>
			<path class="st7" d="M418.42,77.42c-1.03,3.61-6.74,3.78-7.18-0.3c-0.24-2.2,1.83-4.77,4.14-4.45
				C417.49,72.96,419,75.37,418.42,77.42z"/>
		</g>
		<g style="clip-path:url(#SVGID_00000086651595793166132450000002680886991063924631_);">
			<g>
				<path class="st1" d="M419.17,72.93c9.43,14.15,18.86,28.29,28.29,42.44c0.02,0.04,0.03,0.07,0.04,0.11
					c0.05,0.05,0.06,0.11,0.02,0.19c-8.13,12.88-16.25,25.77-24.38,38.65c-0.27,0.43-2.71,1.31-2.75,0.42
					c-1.14-23.67-2.29-47.34-3.43-71.02c-0.16-3.36-0.32-6.71-0.49-10.07C416.44,72.88,418.78,72.35,419.17,72.93z"/>
			</g>
		</g>
		<g style="clip-path:url(#SVGID_00000086651595793166132450000002680886991063924631_);">
			<g>
				<path class="st4" d="M427.72,95.88c4.24,5.5,8.49,11,12.73,16.5c0.04,0.05,0.04,0.1,0.04,0.15c0.01,0.05,0,0.1-0.04,0.15
					c-3.3,3.93-6.6,7.86-9.9,11.79c-0.41,0.49-2.69,0.66-2.77-0.22c-0.94-9.43-1.89-18.86-2.83-28.29
					C424.85,95.1,427.38,95.44,427.72,95.88z"/>
			</g>
		</g>
		<polygon style="clip-path:url(#SVGID_00000086651595793166132450000002680886991063924631_);fill:none;" points="75.77,413.09 
			148.35,413.09 700.87,413.09 700.87,-212.01 75.77,-212.01 		"/>
	</g>
</g>
</svg>
